<?xml version="1.0" encoding="utf-8"?><svg viewBox="0 0 46 46" xmlns="http://www.w3.org/2000/svg" xmlns:xlink="http://www.w3.org/1999/xlink"><style>:root>svg{display:none}:root>svg:target{display:block}</style><svg viewBox="0 0 11 8" id="arrow" xmlns="http://www.w3.org/2000/svg"><path fill-rule="evenodd" d="M11 2.04L5.75 7.29.5 2.011 2.012.499l3.752 3.752L9.488.528 11 2.04z"/></svg><svg viewBox="0 0 11 8" id="arrow-feedback" xmlns="http://www.w3.org/2000/svg"><path fill-rule="evenodd" d="M10.228 1.942L5.114 7.056 0 1.914 1.473.441l3.655 3.655L8.755.469l1.473 1.473z"/></svg><svg viewBox="0 0 9 13" id="arrow-footer-link" xmlns="http://www.w3.org/2000/svg"><path fill-rule="evenodd" d="M6.65 12.609L1.85 7.81.408 6.368l-.017-.017L6.633.109l1.459 1.459-4.783 4.783 4.8 4.8-1.459 1.458z"/></svg><svg viewBox="0 0 8 11" id="arrow-white" xmlns="http://www.w3.org/2000/svg"><path fill-rule="evenodd" fill="#FFF" d="M2.494.081l5.412 5.412-5.441 5.412L.906 9.346l3.868-3.867L.935 1.64 2.494.081z"/></svg><svg viewBox="0 0 14 11" id="check" xmlns="http://www.w3.org/2000/svg"><path fill-rule="evenodd" d="M13.75 1.864L5.5 10.113 0 4.584 1.584 3l3.931 3.93L12.166.279l1.584 1.585z"/></svg><svg viewBox="0 0 32 32" id="close" xmlns="http://www.w3.org/2000/svg"><path fill-rule="evenodd" opacity=".102" d="M16 0c8.836 0 16 7.163 16 16 0 8.836-7.164 16-16 16-8.837 0-16-7.164-16-16C0 7.163 7.163 0 16 0z"/><path fill-rule="evenodd" opacity=".702" d="M19.604 22.006L16 18.402l-3.605 3.604-2.402-2.402 3.604-3.605-3.604-3.604 2.402-2.403L16 13.597l3.604-3.605 2.403 2.403-3.604 3.604 3.604 3.605-2.403 2.402z"/></svg><svg viewBox="0 0 14 14" id="close-mobile-black" xmlns="http://www.w3.org/2000/svg"><path fill-rule="evenodd" d="M11.205 14.008L7 9.803l-4.205 4.205-2.803-2.803L4.197 7-.008 2.794 2.795-.009 7 4.196l4.205-4.205 2.804 2.803L9.803 7l4.206 4.205-2.804 2.803z"/></svg><svg viewBox="0 0 14 14" id="close-mobile-white" xmlns="http://www.w3.org/2000/svg"><path fill-rule="evenodd" fill="#FFF" d="M11.205 14.008L7 9.803l-4.205 4.205-2.803-2.803 4.205-4.206-4.205-4.205L2.795-.009 7 4.196l4.205-4.205 2.804 2.803-4.206 4.205 4.206 4.206-2.804 2.803z"/></svg><svg viewBox="0 0 13 13" id="close-table" xmlns="http://www.w3.org/2000/svg"><path fill-rule="evenodd" d="M10.859 12.683L6.112 7.936l-4.545 4.545-1.212-1.212L4.9 6.724.355 2.179 1.567.967l4.545 4.545L10.859.765l1.212 1.212-4.747 4.747 4.747 4.747-1.212 1.212z"/></svg><svg viewBox="0 0 13 23" id="facebook" xmlns="http://www.w3.org/2000/svg"><path fill-rule="evenodd" fill="#FFF" d="M9.265 13.25h2.482c.149-1.497.502-2.746.536-4.235H8.194c-.209-.631-.052-2.455-.049-3.262.214-.337.145-.776.438-1.022.751-.629 2.432-.402 3.797-.389.096-.291.049-.797.049-1.169V.497c-.13-.045-.338-.052-.536-.049-.178-.113-.527.005-.778-.049C10.61.29 9.422.215 8.827.35l-.876.049c-.673.168-1.367.351-1.899.681-2.396 1.485-2.349 4.028-2.336 7.886-.278.092-.761.049-1.12.049H.065c-.113.342-.049.936-.049 1.363v2.823c.278.092.762.049 1.12.049h2.531c.217.659.049 2.519.049 3.358v6.393h4.429v-9.703c.278-.092.761-.048 1.12-.048z"/></svg><svg viewBox="0 0 21 22" id="filter" xmlns="http://www.w3.org/2000/svg"><path fill-rule="evenodd" fill="#FFF" d="M.835.012h19.484c.374.424.636.271.624 1.163-.156.137-.211.367-.333.54-.434.617-.885 1.237-1.329 1.869-1.204 1.718-2.443 3.421-3.656 5.152-.463.661-.939 1.319-1.413 1.994-.262.373-.605.703-.747 1.205-.14.494-.042 1.22-.042 1.786v3.739c0 .528.126 1.345-.041 1.787-.177.466-.733.524-1.205.706-.783.301-1.584.604-2.41.914-.458.172-.752.411-1.412.415-.156-.149-.431-.225-.54-.415-.254-.442-.125-1.436-.125-2.078v-4.985c0-.595.127-1.439-.041-1.952-.138-.419-.439-.717-.665-1.039-.445-.632-.895-1.251-1.33-1.869C4.502 7.306 3.399 5.68 2.248 4.041c-.434-.618-.886-1.237-1.33-1.869C.611 1.733.182 1.458.171.718.254.627.263.49.337.386.458.216.702.166.835.012z"/></svg><svg viewBox="0 0 46 46" id="instagram" xmlns="http://www.w3.org/2000/svg"><path fill-rule="evenodd" d="M33.081 45.499H12.918C6.071 45.499.5 39.929.5 33.081V12.918C.5 6.071 6.071.499 12.918.499h20.163C39.929.499 45.5 6.071 45.5 12.918v20.163c0 6.848-5.571 12.418-12.419 12.418zm8.426-12.418V12.918c0-4.646-3.78-8.426-8.426-8.426H12.918c-4.646 0-8.426 3.78-8.426 8.426v20.163c0 4.646 3.78 8.426 8.426 8.426h20.163c4.647 0 8.426-3.78 8.426-8.426zm-6.426-19.207a2.95 2.95 0 01-2.068-.856 2.956 2.956 0 01-.859-2.071c0-.772.313-1.528.859-2.071a2.942 2.942 0 012.068-.857c.772 0 1.528.312 2.071.857a2.94 2.94 0 01.857 2.071 2.95 2.95 0 01-.857 2.071 2.955 2.955 0 01-2.071.856zM23 34.595c-6.394 0-11.595-5.201-11.595-11.595 0-6.394 5.201-11.596 11.595-11.596 6.394 0 11.595 5.202 11.595 11.596S29.394 34.595 23 34.595zm0-19.198c-4.192 0-7.603 3.411-7.603 7.603s3.411 7.602 7.603 7.602 7.603-3.41 7.603-7.602-3.411-7.603-7.603-7.603z"/></svg><svg viewBox="0 0 27 27" id="instagram-white" xmlns="http://www.w3.org/2000/svg"><path fill-rule="evenodd" fill="#FFF" d="M19.549 27H7.451C3.342 27 0 23.657 0 19.548V7.451C0 3.342 3.342-.001 7.451-.001h12.098C23.657-.001 27 3.342 27 7.451v12.097C27 23.657 23.657 27 19.549 27zm5.055-7.452V7.451a5.061 5.061 0 00-5.055-5.056H7.451a5.062 5.062 0 00-5.056 5.056v12.097a5.062 5.062 0 005.056 5.056h12.098a5.061 5.061 0 005.055-5.056zM20.749 8.025c-.462 0-.915-.189-1.241-.514a1.775 1.775 0 01-.516-1.243 1.761 1.761 0 011.757-1.757 1.76 1.76 0 011.757 1.757c0 .461-.187.915-.515 1.243a1.776 1.776 0 01-1.242.514zM13.5 20.457A6.965 6.965 0 016.543 13.5 6.965 6.965 0 0113.5 6.543a6.965 6.965 0 016.957 6.957 6.965 6.965 0 01-6.957 6.957zm0-11.519A4.567 4.567 0 008.938 13.5a4.567 4.567 0 004.562 4.561 4.566 4.566 0 004.561-4.561A4.566 4.566 0 0013.5 8.938z"/></svg><svg viewBox="0 0 30 22" id="menu" xmlns="http://www.w3.org/2000/svg"><path fill-rule="evenodd" fill="#FFF" d="M0 0h30v4H0V0zM0 9h30v4H0V9zM0 18h30v4H0v-4z"/></svg><svg viewBox="0 0 17 28" id="slider_arrow-next" xmlns="http://www.w3.org/2000/svg"><path fill-rule="evenodd" d="M2.64.531l10.362 10.361 3.112 3.112.036.037L2.677 27.515.53 25.369l10.827-11.328L.494 2.677 2.64.531z"/></svg><svg viewBox="0 0 17 28" id="slider_arrow-prev" xmlns="http://www.w3.org/2000/svg"><path fill-rule="evenodd" d="M14.016 27.5L3.655 17.139.543 14.026l-.037-.036L13.98.516l2.146 2.146L5.299 13.99l10.863 11.364-2.146 2.146z"/></svg><svg viewBox="0 0 21 21" id="telegram" xmlns="http://www.w3.org/2000/svg"><path fill-rule="evenodd" fill="#FFF" d="M20.06.124h.409c.313.357.462.237.449.981-.172.24-.081.644-.163.98-.17.693-.145 1.462-.327 2.206-.17.692-.146 1.46-.327 2.206-.532 2.193-.543 4.623-1.062 6.823-.217.918-.198 1.869-.409 2.737-.121.502-.003 1.145-.368 1.39-.356.239-1.304-.12-1.634-.246-1.331-.505-2.785-.973-4.126-1.471-.961-.355-1.936-.639-2.86-.98-.344-.127-.893-.148-1.103-.409.241-.167.396-.459.572-.694.43-.574.951-1.091 1.389-1.675.3-.401.722-.744 1.021-1.144 1.068-1.424 2.283-2.702 3.35-4.126.558-.745 1.233-1.409 1.798-2.166.18-.241.502-.431.613-.735h.041V3.76h-.041c-.361.379-.805.704-1.226 1.021-.665.501-1.244 1.126-1.92 1.634-.375.283-.687.698-1.062.981-1.395 1.052-2.607 2.298-4.004 3.35-.796.6-1.482 1.354-2.288 1.961-.301.227-.55.701-.981.776-.358-.259-.906-.284-1.348-.449-.953-.356-1.987-.708-2.941-1.062C.803 11.709-.02 11.799 0 10.787c1.583-1.158 3.527-1.936 5.311-2.901 2.896-1.564 5.888-3.094 8.784-4.657 1.513-.818 3.049-1.568 4.535-2.37.381-.205 1.178-.435 1.43-.735zM7.64 15.486c.248.03.457.171.654.244.573.215 1.145.374 1.675.572.359.136.826.143 1.103.368.03.044.024.039.041.123-.312.252-.502.689-.736 1.022-.351.498-.787.974-1.144 1.47-.24.334-.386.841-.939.858-.197.06-.505-.113-.572-.327-.154-.203-.082-.764-.082-1.103v-2.37c0-.281-.041-.7 0-.857z"/></svg><svg viewBox="0 0 31 22" id="twitter" xmlns="http://www.w3.org/2000/svg"><path fill-rule="evenodd" fill="#FFF" d="M5.336 6.461C5.4 7.924 6.614 8.848 7.707 9.306c.315.132.686.114.948.297-.721.021-1.842.323-1.956.948.141.138.175.307.296.474.672.923 1.754 1.308 3.379 1.303v.06h-.119c-.62.602-1.187.608-.889 1.838.365.236.589.558 1.067.711.258.083.733-.017.949.119-.313.207-.532.551-.83.77a9.881 9.881 0 01-2.016 1.127c-.564.231-1.218.328-1.837.474-.494.116-1.262.102-1.719 0h-.593c-.614-.144-1.274-.243-1.837-.474-.998-.411-1.724-1.055-2.549-1.601v.059c.282.198.444.555.652.83.309.411.77.812 1.185 1.126l.474.534c1.644 1.238 3.382 2.244 5.572 2.964 1.702.559 5.451.877 7.469.355 4.095-1.058 7.421-2.459 9.603-5.394.844-1.134 2.167-2.743 2.312-4.505 1.902-.004 2.623-.635 3.734-1.363v-.06h-.296c-.475.318-2.915-.171-3.142-.355 1.59-.154 2.748-.836 3.32-2.016h-.119c-.688.649-2.44.562-3.557.415-.305-2.528-2.309-4.731-4.327-5.571-.446-.186-.991-.248-1.482-.356-.245-.054-.542.043-.711-.059h.118c.664-.477 2.293-.204 2.312-1.304-.135-.073-.133-.097-.355-.119-.389-.217-1.334.256-1.719.356V.83h.059c.251-.256.552-.354.593-.831h-.119l-1.008.297c-.349.152-.643.463-1.007.593V.77c.124-.131.163-.287.178-.533h-.06c-.415.553-1.176.862-1.6 1.422-.728.963-1.509 2.047-2.015 3.201-.309.703-.602 1.394-.89 2.075-.119.283-.093.632-.355.771-.767-1.11-2.134-1.724-3.379-2.371-1.472-.765-3.01-1.393-4.624-2.075-.705-.298-1.463-.694-2.252-.889v.77l.296.89c.42.844 1.339 1.927 2.312 2.193v.059h-.889c-.204.136-.653.169-.948.178z"/></svg><svg viewBox="0 0 27 29" id="viber" xmlns="http://www.w3.org/2000/svg"><path fill-rule="evenodd" fill="#FFF" d="M11.486.305c4.937-.061 9.074.419 11.881 2.467 4.07 2.967 4.35 14.762 1.233 19.11-1.358 1.894-3.612 2.643-6.221 3.307-1.112.282-2.312.141-3.474.392l-3.643-.056c-.435.862-1.338 1.49-1.906 2.242-.315.417-.781 1.034-1.289 1.232h-.672c-.191-.245-.505-.398-.617-.728-.233-.691-.06-2.7-.056-3.587-.574-.264-1.256-.405-1.793-.728-1.49-.897-2.629-2.105-3.419-3.699C.029 17.264-.075 9.879 1.174 6.47c.434-1.184 1.098-2.164 1.793-3.082C3.954 2.086 6.616 1.273 8.46.754c.633-.179 2.618-.176 3.026-.449zm.336 2.018c-.397.24-2.004.178-2.578.336-1.777.49-3.291 1.029-4.539 2.018-.41.325-.67.887-.953 1.345C1.912 9 1.735 16.908 3.64 19.976c.476.767 1.277 1.635 2.074 2.074.32.177 1.588.552 1.737.784.175.285.42.822.392 1.122-.086.937.01 1.768-.224 2.522.117-.369.126 1.731 1.009.56.659-.875 1.026-1.469 1.681-2.354.271-.365.846-1.128 1.345-1.233.301.192 1.479.056 1.906.056 1.513 0 2.978-.124 4.203-.448.327-.087.519-.009.84-.112 1.659-.532 3.272-.998 4.204-2.242.562-.75 1.018-1.655 1.345-2.634.182-.546.212-1.199.336-1.737v-.841c.457-2.133.13-6.238-.448-7.958-1.573-4.677-6.05-5.203-12.218-5.212zm1.345 3.138c4.66-.03 7.423 3.29 7.398 7.958-.099.054-.094.071-.224.113-.167.118-.318.044-.393-.113-.263-.422-.126-1.639-.28-2.185-.358-1.272-.968-2.712-1.905-3.419-.927-.699-1.868-1.242-3.195-1.569-.475-.117-1.324.118-1.513-.28-.147-.217.022-.367.112-.505zm-4.651.785c.668.052.819.429 1.121.841.526.718 1.34 1.482 1.625 2.41v.728c-.096.098-.085.215-.168.336-.313.456-1.021.498-1.065 1.233-.211.358.468 1.468.616 1.738.725 1.318 2.263 3.109 4.091 3.25.138-.11.359-.118.505-.224.744-.54.232-1.133 1.793-1.121.826.754 3.073 1.486 3.083 2.914-.116.155-.12.387-.224.561-.448.741-1.134 1.553-2.074 1.793-.483.123-.936-.213-1.233-.336-1.111-.462-2.029-.984-2.97-1.569-3.122-1.941-4.615-3.779-6.333-7.118-.336-.653-1.39-2.41-1.065-3.362.254-.746 1.051-1.466 1.681-1.85l.617-.224zm5.38 1.065c2.442.436 3.582 1.049 4.427 3.082.247.593.503 1.516.337 2.354-.15.068-.211.102-.449.112-.317-.522-.219-1.576-.448-2.186-.557-1.479-1.996-2.595-3.979-2.634-.115-.181-.168-.225-.168-.56.081-.044.209-.107.28-.168zm.448 1.961c1.392-.031 2.074.69 2.41 1.738.093.29.274.84.056 1.12-.094.076-.176.092-.336.112-.06-.066-.112-.092-.168-.167-.185-.251-.105-.752-.224-1.065-.319-.834-1.066-.796-1.906-1.121-.029-.233-.077-.337.056-.505.042-.048.071-.063.112-.112z"/></svg><svg viewBox="0 0 27 29" id="viber-black" xmlns="http://www.w3.org/2000/svg"><path fill-rule="evenodd" d="M11.486.306c4.937-.062 9.074.418 11.881 2.466 4.07 2.967 4.35 14.763 1.233 19.11-1.358 1.894-3.612 2.643-6.221 3.307-1.112.283-2.312.142-3.474.392l-3.643-.056c-.435.862-1.338 1.49-1.906 2.242-.315.418-.781 1.035-1.289 1.233h-.672c-.191-.246-.505-.399-.617-.729-.233-.691-.06-2.7-.056-3.586-.574-.265-1.256-.406-1.793-.729-1.49-.897-2.629-2.105-3.419-3.699C.029 17.265-.075 9.88 1.174 6.47c.434-1.183 1.098-2.164 1.794-3.082C3.954 2.086 6.616 1.273 8.46.754c.633-.178 2.618-.176 3.026-.448zm.336 2.017c-.397.241-2.004.178-2.578.337-1.776.49-3.291 1.028-4.539 2.017-.41.325-.67.887-.953 1.345C1.912 9 1.735 16.908 3.64 19.977c.476.766 1.278 1.635 2.074 2.074.32.176 1.588.551 1.737.784.175.284.42.821.392 1.121-.086.938.01 1.769-.224 2.522.117-.369.126 1.732 1.009.56.659-.875 1.026-1.469 1.681-2.353.271-.366.846-1.129 1.345-1.234.301.192 1.479.057 1.906.057 1.513 0 2.978-.124 4.203-.449.327-.087.519-.009.841-.112 1.659-.531 3.271-.998 4.203-2.241.562-.751 1.018-1.656 1.345-2.635.182-.546.212-1.198.336-1.737v-.84c.457-2.134.13-6.238-.448-7.959-1.573-4.677-6.05-5.203-12.218-5.212zm1.345 3.139c4.66-.03 7.424 3.289 7.398 7.958-.099.054-.094.07-.224.112-.167.118-.318.044-.392-.112-.264-.423-.127-1.64-.281-2.186-.358-1.272-.968-2.711-1.905-3.418-.927-.7-1.868-1.242-3.195-1.57-.475-.117-1.324.119-1.513-.28-.147-.217.022-.366.112-.504zm-4.651.784c.668.053.819.43 1.121.841.526.718 1.34 1.483 1.625 2.41v.728c-.096.099-.085.215-.168.337-.313.455-1.021.497-1.065 1.233-.211.357.468 1.467.616 1.737.725 1.318 2.263 3.109 4.092 3.25.138-.11.358-.118.504-.224.744-.54.232-1.132 1.793-1.121.826.754 3.073 1.486 3.083 2.915-.116.155-.119.386-.224.56-.448.741-1.134 1.553-2.074 1.794-.483.123-.936-.213-1.233-.337-1.111-.462-2.029-.984-2.97-1.569-3.122-1.941-4.615-3.779-6.333-7.117-.336-.654-1.39-2.411-1.065-3.363.254-.746 1.052-1.466 1.681-1.85l.617-.224zm5.38 1.065c2.442.436 3.582 1.049 4.427 3.083.247.592.503 1.516.337 2.353-.15.068-.211.102-.449.113-.317-.523-.219-1.577-.448-2.186-.557-1.479-1.996-2.596-3.979-2.634-.115-.182-.168-.226-.168-.561.081-.044.209-.106.28-.168zm.448 1.962c1.392-.032 2.074.689 2.41 1.737.093.291.274.841.056 1.121-.094.075-.176.092-.336.112-.06-.067-.112-.092-.168-.168-.185-.251-.105-.752-.224-1.065-.319-.834-1.066-.796-1.906-1.121-.029-.232-.077-.337.056-.504.042-.049.071-.063.112-.112z"/></svg><svg viewBox="0 0 30 18" id="vk" xmlns="http://www.w3.org/2000/svg"><path fill-rule="evenodd" fill="#FFF" d="M12.815.499h3.808c.503.165.718.784.847 1.331.41 1.74-.339 4.065.06 5.742.206.865.071 1.569 1.149 1.572.739-.829.972-1.684 1.511-2.72.579-1.115 1.229-2.186 1.874-3.205.295-.465.896-1.767 1.33-1.994.923-.483 3.761.13 4.473.362.38.125.998.156 1.149.484v.544c-.338.448-.436 1.098-.726 1.572-.727 1.186-1.551 2.323-2.357 3.445-.564.784-1.557 1.568-1.633 2.781 1.418 1.617 3.315 2.769 4.474 4.655.686 1.117-.051 2.363-.907 2.72-.451.188-1.192.121-1.814.121h-2.72c-.437-.142-.73-.61-1.027-.907-.568-.568-1.168-1.145-1.814-1.632-.506-.382-1.452-1.566-2.539-1.269-.621.169-1.273.835-1.45 1.45-.345 1.195.284 2.358-1.27 2.358-.311.197-1.339.019-1.692-.061l-.847-.06c-1.338-.357-2.354-.888-3.324-1.572-3.404-2.396-5.686-5.787-7.617-9.671C1.169 5.369.014 3.417 0 1.83c.981-.631 2.54-.143 3.869-.424.341-.072.902-.005 1.088.121.629.218.868.937 1.209 1.451.94 1.415 1.84 2.942 2.78 4.352.433.649.848 1.789 1.874 1.814.662-1.038.785-2.766.786-4.474.001-.632.087-1.482-.181-1.873-.401-.585-1.258-.146-1.753-.363-.049-.062-.022-.017-.061-.121.46-.295.795-.794 1.27-1.088.344-.214.833-.418 1.209-.544.258-.087.526-.044.725-.182z"/></svg><svg viewBox="0 0 30 22" id="youtube" xmlns="http://www.w3.org/2000/svg"><path fill-rule="evenodd" fill="#FFF" d="M28.918 17.771c-.382 2.255-1.376 3.536-3.487 3.774 0 0-5.375.443-10.702.455-5.231.012-10.415-.407-10.415-.407-2.11 0-3.535-1.52-3.965-3.869 0 0-.254-2.696-.322-5.397C-.048 9.291.063 6.21.063 6.21.445 3.574.388.095 5.843.191c0 0 4.4-.192 9.03-.192 5.138 0 9.698.239 9.698.239 2.493.144 3.917 1.281 4.299 3.774 0 0 .478 3.228.478 6.498 0 4.336-.43 7.261-.43 7.261zM10.979 5.459v11.057l9.244-5.528-9.244-5.529z"/></svg></svg>